HIERARCHY
ROOT Hips
{
 OFFSET 0.000000 0.000000 0.000000
 CHANNELS 6 Xposition Yposition Zposition Yrotation Xrotation Zrotation
 JOINT Chest
 {
  OFFSET 0.000000 9.588913 -0.003946
  CHANNELS 3 Yrotation Xrotation Zrotation
  JOINT Chest2
  {
   OFFSET 0.000000 9.541882 0.008053
   CHANNELS 3 Yrotation Xrotation Zrotation
   JOINT Chest3
   {
    OFFSET 0.000000 9.501360 0.000000
    CHANNELS 3 Yrotation Xrotation Zrotation
    JOINT Chest4
    {
     OFFSET 0.000000 9.491660 0.000000
     CHANNELS 3 Yrotation Xrotation Zrotation
     JOINT Neck
     {
      OFFSET 0.000000 14.331917 0.000000
      CHANNELS 3 Yrotation Xrotation Zrotation
      JOINT Head
      {
       OFFSET 0.000000 8.884799 0.017034
       CHANNELS 3 Yrotation Xrotation Zrotation
       End Site
       {
        OFFSET 0.000000 16.896195 0.008993
       }
      }
     }
     JOINT RightCollar
     {
      OFFSET -2.923010 9.499495 0.000000
      CHANNELS 3 Yrotation Xrotation Zrotation
      JOINT RightShoulder
      {
       OFFSET -13.795216 0.000000 0.000000
       CHANNELS 3 Yrotation Xrotation Zrotation
       JOINT RightElbow
       {
        OFFSET -30.272209 0.000000 0.000000
        CHANNELS 3 Yrotation Xrotation Zrotation
        JOINT RightWrist
        {
         OFFSET -24.478199 0.000000 0.000000
         CHANNELS 3 Yrotation Xrotation Zrotation
         End Site
         {
          OFFSET -18.090752 0.000000 0.000000
         }
        }
       }
      }
     }
     JOINT LeftCollar
     {
      OFFSET 2.923010 9.499495 0.000000
      CHANNELS 3 Yrotation Xrotation Zrotation
      JOINT LeftShoulder
      {
       OFFSET 13.795216 0.000000 0.000000
       CHANNELS 3 Yrotation Xrotation Zrotation
       JOINT LeftElbow
       {
        OFFSET 30.272209 0.000000 0.000000
        CHANNELS 3 Yrotation Xrotation Zrotation
        JOINT LeftWrist
        {
         OFFSET 24.478199 0.000000 0.000000
         CHANNELS 3 Yrotation Xrotation Zrotation
         End Site
         {
          OFFSET 18.090752 0.000000 0.000000
         }
        }
       }
      }
     }
    }
   }
  }
 }
 JOINT RightHip
 {
  OFFSET -7.826875 0.019532 0.001973
  CHANNELS 3 Yrotation Xrotation Zrotation
  JOINT RightKnee
  {
   OFFSET 0.000000 -40.546152 -0.001885
   CHANNELS 3 Yrotation Xrotation Zrotation
   JOINT RightAnkle
   {
    OFFSET 0.000000 -39.417092 -0.003189
    CHANNELS 3 Yrotation Xrotation Zrotation
    JOINT RightToe
    {
     OFFSET 0.000000 -7.579396 17.243563
     CHANNELS 3 Yrotation Xrotation Zrotation
     End Site
     {
      OFFSET 0.000000 -1.500329 6.694466
     }
    }
   }
  }
 }
 JOINT LeftHip
 {
  OFFSET 7.826875 0.019532 0.001973
  CHANNELS 3 Yrotation Xrotation Zrotation
  JOINT LeftKnee
  {
   OFFSET 0.000000 -40.546152 -0.001885
   CHANNELS 3 Yrotation Xrotation Zrotation
   JOINT LeftAnkle
   {
    OFFSET 0.000000 -39.417092 -0.003189
    CHANNELS 3 Yrotation Xrotation Zrotation
    JOINT LeftToe
    {
     OFFSET 0.000000 -7.579396 17.243563
     CHANNELS 3 Yrotation Xrotation Zrotation
     End Site
     {
      OFFSET 0.000000 -1.500329 6.694466
     }
    }
   }
  }
 }
}
MOTION
Frames: 5
Frame Time: 0.008333
0.000000 87.345680 0.000000 0.000000 -5.767889 0.000000 0.000000 11.653876 0.000000 0.000000 -5.885988 0.000000 0.000000 -0.000000 0.000000 0.000000 -0.000000 0.000000 0.000000 12.528808 0.000000 0.000000 0.711711 0.000000 0.000000 -0.000000 0.000000 0.000000 -0.000000 0.000000 2.309063 -0.000000 0.000000 -2.309063 -0.000000 -0.000000 0.000000 -0.000000 0.000000 0.000000 0.000000 0.000000 -2.309063 0.000000 0.000000 2.309063 -0.000000 0.000000 0.000000 8.520374 0.000000 0.000000 1.905768 0.000000 -0.000000 -4.658254 0.000000 0.000000 -0.000000 0.000000 0.000000 8.520374 0.000000 0.000000 1.905768 0.000000 -0.000000 -4.658254 0.000000 0.000000 -0.000000 0.000000
2.255960 88.838724 20.595723 -52.339907 -7.575414 0.136256 3.361987 2.556162 -0.069046 1.921564 1.455407 -0.002771 2.402138 1.819210 0.004167 1.921564 1.455407 -0.002771 0.707477 29.509888 1.450504 0.455240 7.150454 1.445879 -9.134533 0.648248 -0.479060 0.728052 -0.377673 90.299165 -0.705606 1.648019 -1.000850 -0.535629 -2.233525 -1.495464 -3.058046 0.606218 -1.426180 0.166197 -0.805091 -88.770468 -1.074536 4.929822 0.295320 -0.411733 3.494452 3.786685 -4.604485 10.216091 -7.496118 -0.966272 1.775075 -1.181755 1.575445 -4.285634 5.024080 0.008884 -0.124884 0.011117 6.746835 12.557579 3.155701 9.018582 -0.093671 0.701287 3.867617 -4.256883 -2.914881 0.011791 0.134696 0.026779
2.266524 88.838890 20.609297 -52.362718 -7.577224 0.135396 3.372683 2.554444 -0.071395 1.928274 1.454836 -0.003744 2.410522 1.818500 0.002973 1.928274 1.454836 -0.003744 0.697054 29.517730 1.454618 0.442806 7.160896 1.452853 -9.136887 0.652165 -0.469235 0.741531 -0.383410 90.293988 -0.709047 1.648646 -1.012175 -0.551810 -2.231740 -1.493954 -3.053795 0.604932 -1.412662 0.167870 -0.804110 -88.772853 -1.076861 4.914287 0.290544 -0.392071 3.497656 3.767987 -4.609611 10.203618 -7.510036 -0.950195 1.791178 -1.184276 1.591283 -4.284049 5.039670 0.007397 -0.128030 0.008474 6.774697 12.576201 3.156317 9.018286 -0.121342 0.682205 3.863311 -4.248642 -2.898902 0.010484 0.133297 0.026696
2.278461 88.838850 20.624673 -52.384269 -7.580557 0.132154 3.382489 2.553355 -0.072911 1.934255 1.454584 -0.004143 2.417997 1.818187 0.002498 1.934255 1.454584 -0.004143 0.687173 29.527106 1.458998 0.430919 7.173379 1.460011 -9.141792 0.654286 -0.460002 0.754783 -0.390312 90.290148 -0.714002 1.652801 -1.025176 -0.566903 -2.229411 -1.493946 -3.047814 0.603579 -1.398941 0.170058 -0.804320 -88.771490 -1.077426 4.894153 0.283736 -0.370998 3.500490 3.741413 -4.616612 10.194172 -7.525480 -0.932218 1.804763 -1.182218 1.604064 -4.280539 5.053888 0.006857 -0.131225 0.006734 6.801401 12.593897 3.159881 9.014023 -0.143915 0.658284 3.865315 -4.244676 -2.878138 0.010028 0.133100 0.026157
2.291320 88.838543 20.641594 -52.400866 -7.587447 0.128080 3.389894 2.553455 -0.075704 1.938812 1.454874 -0.004680 2.423692 1.818552 0.001846 1.938812 1.454874 -0.004680 0.678893 29.537184 1.464160 0.420630 7.186813 1.467679 -9.147261 0.655852 -0.451181 0.766406 -0.395199 90.286788 -0.720457 1.655403 -1.034447 -0.576250 -2.225534 -1.497576 -3.040861 0.601933 -1.383105 0.171928 -0.803891 -88.766478 -1.078198 4.869192 0.274194 -0.346746 3.501067 3.710421 -4.626696 10.191521 -7.542081 -0.916391 1.813877 -1.179366 1.614657 -4.275812 5.069090 0.006720 -0.133881 0.005217 6.816428 12.612540 3.162154 9.008314 -0.160821 0.633280 3.875594 -4.244512 -2.855860 0.009626 0.133867 0.025878
